HIERARCHY
ROOT newVegas:Hips
{
	OFFSET 0.000000 96.479958 0.000000
	CHANNELS 6 Xposition Yposition Zposition Xrotation Yrotation Zrotation
	JOINT newVegas:Pelvis
	{
		OFFSET 0.000000 0.000000 0.000000
		CHANNELS 3 Xrotation Yrotation Zrotation
		JOINT newVegas:LeftUpLeg
		{
			OFFSET 18.735201 -5.666702 -4.541200
			CHANNELS 3 Xrotation Yrotation Zrotation
			JOINT newVegas:LeftLeg
			{
				OFFSET -0.021200 -31.938179 0.493100
				CHANNELS 3 Xrotation Yrotation Zrotation
				JOINT newVegas:LeftFoot
				{
					OFFSET 0.021200 -31.938179 -4.336299
					CHANNELS 3 Xrotation Yrotation Zrotation
					JOINT newVegas:LeftToeBase
					{
						OFFSET 0.943001 -26.722000 15.023500
						CHANNELS 3 Xrotation Yrotation Zrotation
						End Site
						{
							OFFSET 0.000000 30.670183 0.000000
						}
					}
				}
				JOINT newVegas:Left_PantLeg
				{
					OFFSET 0.663870 -9.044666 -1.108900
					CHANNELS 3 Xrotation Yrotation Zrotation
					End Site
					{
						OFFSET 1.415995 20.635357 0.000000
					}
				}
			}
		}
		JOINT newVegas:RightUpLeg
		{
			OFFSET -18.735201 -5.666702 -4.541200
			CHANNELS 3 Xrotation Yrotation Zrotation
			JOINT newVegas:RightLeg
			{
				OFFSET 0.018946 -31.938133 0.493100
				CHANNELS 3 Xrotation Yrotation Zrotation
				JOINT newVegas:RightFoot
				{
					OFFSET -0.018946 -31.938126 -4.336299
					CHANNELS 3 Xrotation Yrotation Zrotation
					JOINT newVegas:RightToeBase
					{
						OFFSET -0.943001 -26.722004 15.023500
						CHANNELS 3 Xrotation Yrotation Zrotation
						End Site
						{
							OFFSET 0.000000 30.670187 0.000000
						}
					}
				}
				JOINT newVegas:Right_PantLeg
				{
					OFFSET -0.661674 -9.044716 -1.108900
					CHANNELS 3 Xrotation Yrotation Zrotation
					End Site
					{
						OFFSET -1.415958 20.635269 0.000000
					}
				}
			}
		}
	}
	JOINT newVegas:Spine
	{
		OFFSET 0.000000 10.199997 -0.299500
		CHANNELS 3 Xrotation Yrotation Zrotation
		JOINT newVegas:Spine1
		{
			OFFSET 0.000000 11.900002 -1.516600
			CHANNELS 3 Xrotation Yrotation Zrotation
			JOINT newVegas:Spine2
			{
				OFFSET 0.000000 13.600006 -2.842500
				CHANNELS 3 Xrotation Yrotation Zrotation
				JOINT newVegas:Neck
				{
					OFFSET 0.000000 9.624100 -2.890100
					CHANNELS 3 Xrotation Yrotation Zrotation
					JOINT newVegas:Head
					{
						OFFSET 0.000000 14.068802 -1.351900
						CHANNELS 3 Xrotation Yrotation Zrotation
						JOINT newVegas:Hair_Back
						{
							OFFSET 0.000000 3.231903 -17.524799
							CHANNELS 3 Xrotation Yrotation Zrotation
							End Site
							{
								OFFSET 0.000000 19.849884 0.000000
							}
						}
						JOINT newVegas:Hair_Front
						{
							OFFSET 0.000000 31.260406 4.573800
							CHANNELS 3 Xrotation Yrotation Zrotation
							JOINT newVegas:Hair_Front1
							{
								OFFSET 0.000000 2.284103 11.993300
								CHANNELS 3 Xrotation Yrotation Zrotation
								JOINT newVegas:Hair_Front2
								{
									OFFSET 0.000000 2.284103 11.993300
									CHANNELS 3 Xrotation Yrotation Zrotation
									End Site
									{
										OFFSET 0.000000 12.208862 0.000000
									}
								}
							}
						}
						JOINT newVegas:Jowel
						{
							OFFSET 0.000000 -7.458206 6.864100
							CHANNELS 3 Xrotation Yrotation Zrotation
							End Site
							{
								OFFSET 0.000000 19.849884 0.000000
							}
						}
					}
				}
				JOINT newVegas:LeftShoulder
				{
					OFFSET 15.263000 10.923401 -0.547700
					CHANNELS 3 Xrotation Yrotation Zrotation
					JOINT newVegas:LeftArm
					{
						OFFSET 25.438599 -2.830597 -13.032500
						CHANNELS 3 Xrotation Yrotation Zrotation
						JOINT newVegas:LeftForeArm
						{
							OFFSET 29.960503 0.000000 0.000000
							CHANNELS 3 Xrotation Yrotation Zrotation
							JOINT newVegas:LeftHand
							{
								OFFSET 27.849251 0.000000 0.000000
								CHANNELS 3 Xrotation Yrotation Zrotation
								JOINT newVegas:LeftHandThumb1
								{
									OFFSET 4.487587 -3.305161 6.305391
									CHANNELS 3 Xrotation Yrotation Zrotation
									JOINT newVegas:LeftHandThumb2
									{
										OFFSET 5.480453 -3.164139 3.164143
										CHANNELS 3 Xrotation Yrotation Zrotation
										JOINT newVegas:LeftHandThumb3
										{
											OFFSET 5.159721 -2.978973 2.978967
											CHANNELS 3 Xrotation Yrotation Zrotation
											End Site
											{
												OFFSET 2.494507 5.926697 1.738678
											}
										}
									}
								}
								JOINT newVegas:LeftHandIndex1
								{
									OFFSET 18.578728 -0.527832 5.208049
									CHANNELS 3 Xrotation Yrotation Zrotation
									JOINT newVegas:LeftHandIndex2
									{
										OFFSET 3.192009 0.000000 0.000000
										CHANNELS 3 Xrotation Yrotation Zrotation
										JOINT newVegas:LeftHandIndex3
										{
											OFFSET 3.835129 0.000000 0.000000
											CHANNELS 3 Xrotation Yrotation Zrotation
											End Site
											{
												OFFSET -0.034599 3.816971 0.371180
											}
										}
									}
								}
								JOINT newVegas:LeftHandMiddle1
								{
									OFFSET 18.476105 0.000000 0.000000
									CHANNELS 3 Xrotation Yrotation Zrotation
									JOINT newVegas:LeftHandMiddle2
									{
										OFFSET 3.324875 0.000000 0.000000
										CHANNELS 3 Xrotation Yrotation Zrotation
										JOINT newVegas:LeftHandMiddle3
										{
											OFFSET 4.596550 0.000000 0.000000
											CHANNELS 3 Xrotation Yrotation Zrotation
											End Site
											{
												OFFSET 0.057701 4.578827 0.399218
											}
										}
									}
								}
								JOINT newVegas:LeftHandRing1
								{
									OFFSET 17.732719 0.121887 -4.201567
									CHANNELS 3 Xrotation Yrotation Zrotation
									JOINT newVegas:LeftHandRing2
									{
										OFFSET 2.733170 0.000000 0.000000
										CHANNELS 3 Xrotation Yrotation Zrotation
										JOINT newVegas:LeftHandRing3
										{
											OFFSET 3.178268 0.000000 0.000000
											CHANNELS 3 Xrotation Yrotation Zrotation
											End Site
											{
												OFFSET 0.119102 3.170624 0.185394
											}
										}
									}
								}
								JOINT newVegas:LeftHandPinky1
								{
									OFFSET 15.989624 -0.606689 -7.535461
									CHANNELS 3 Xrotation Yrotation Zrotation
									JOINT newVegas:LeftHandPinky2
									{
										OFFSET 2.538986 0.000000 0.000000
										CHANNELS 3 Xrotation Yrotation Zrotation
										JOINT newVegas:LeftHandPinky3
										{
											OFFSET 2.593102 0.000000 0.000000
											CHANNELS 3 Xrotation Yrotation Zrotation
											End Site
											{
												OFFSET -0.150902 2.584198 0.152708
											}
										}
									}
								}
							}
							JOINT newVegas:Left_Sleeve
							{
								OFFSET 0.267448 -0.649796 0.577675
								CHANNELS 3 Xrotation Yrotation Zrotation
								End Site
								{
									OFFSET 0.000000 15.991241 0.000000
								}
							}
							JOINT newVegas:Left_CapeC
							{
								OFFSET 15.715958 -8.608795 -6.935905
								CHANNELS 3 Xrotation Yrotation Zrotation
								JOINT newVegas:Left_CapeC1
								{
									OFFSET 0.000000 -8.688499 0.000000
									CHANNELS 3 Xrotation Yrotation Zrotation
									End Site
									{
										OFFSET 0.000000 8.688499 0.000000
									}
								}
							}
						}
						JOINT newVegas:Left_CapeB
						{
							OFFSET 26.118385 -8.608795 -7.079235
							CHANNELS 3 Xrotation Yrotation Zrotation
							JOINT newVegas:Left_CapeB1
							{
								OFFSET 0.000000 -8.688499 0.000000
								CHANNELS 3 Xrotation Yrotation Zrotation
								End Site
								{
									OFFSET 0.000000 8.688499 0.000000
								}
							}
						}
						JOINT newVegas:Left_CapeA
						{
							OFFSET 5.115639 -8.608795 -10.395809
							CHANNELS 3 Xrotation Yrotation Zrotation
							JOINT newVegas:Left_CapeA1
							{
								OFFSET 0.000000 -8.688499 0.000000
								CHANNELS 3 Xrotation Yrotation Zrotation
								End Site
								{
									OFFSET 0.000000 8.688499 0.000000
								}
							}
						}
					}
				}
				JOINT newVegas:RightShoulder
				{
					OFFSET -15.263000 10.923401 -0.547700
					CHANNELS 3 Xrotation Yrotation Zrotation
					JOINT newVegas:RightArm
					{
						OFFSET -25.438599 -2.830597 -13.032500
						CHANNELS 3 Xrotation Yrotation Zrotation
						JOINT newVegas:RightForeArm
						{
							OFFSET -29.960503 0.000000 0.000000
							CHANNELS 3 Xrotation Yrotation Zrotation
							JOINT newVegas:RightHand
							{
								OFFSET -27.849251 0.000000 0.000000
								CHANNELS 3 Xrotation Yrotation Zrotation
								JOINT newVegas:RightHandThumb1
								{
									OFFSET -4.487587 -3.305161 6.305391
									CHANNELS 3 Xrotation Yrotation Zrotation
									JOINT newVegas:RightHandThumb2
									{
										OFFSET -5.480453 -3.164139 3.164143
										CHANNELS 3 Xrotation Yrotation Zrotation
										JOINT newVegas:RightHandThumb3
										{
											OFFSET -5.159721 -2.978973 2.978967
											CHANNELS 3 Xrotation Yrotation Zrotation
											End Site
											{
												OFFSET -2.494507 5.926697 1.738678
											}
										}
									}
								}
								JOINT newVegas:RightHandIndex1
								{
									OFFSET -18.578728 -0.527832 5.208049
									CHANNELS 3 Xrotation Yrotation Zrotation
									JOINT newVegas:RightHandIndex2
									{
										OFFSET -3.192009 0.000000 0.000000
										CHANNELS 3 Xrotation Yrotation Zrotation
										JOINT newVegas:RightHandIndex3
										{
											OFFSET -3.835129 0.000000 0.000000
											CHANNELS 3 Xrotation Yrotation Zrotation
											End Site
											{
												OFFSET 0.034599 3.816971 0.371180
											}
										}
									}
								}
								JOINT newVegas:RightHandMiddle1
								{
									OFFSET -18.476105 0.000000 0.000000
									CHANNELS 3 Xrotation Yrotation Zrotation
									JOINT newVegas:RightHandMiddle2
									{
										OFFSET -3.324875 0.000000 0.000000
										CHANNELS 3 Xrotation Yrotation Zrotation
										JOINT newVegas:RightHandMiddle3
										{
											OFFSET -4.596550 0.000000 0.000000
											CHANNELS 3 Xrotation Yrotation Zrotation
											End Site
											{
												OFFSET -0.057701 4.578827 0.399218
											}
										}
									}
								}
								JOINT newVegas:RightHandRing1
								{
									OFFSET -17.732719 0.121887 -4.201567
									CHANNELS 3 Xrotation Yrotation Zrotation
									JOINT newVegas:RightHandRing2
									{
										OFFSET -2.733170 0.000000 0.000000
										CHANNELS 3 Xrotation Yrotation Zrotation
										JOINT newVegas:RightHandRing3
										{
											OFFSET -3.178268 0.000000 0.000000
											CHANNELS 3 Xrotation Yrotation Zrotation
											End Site
											{
												OFFSET -0.119102 3.170624 0.185394
											}
										}
									}
								}
								JOINT newVegas:RightHandPinky1
								{
									OFFSET -15.989624 -0.606689 -7.535461
									CHANNELS 3 Xrotation Yrotation Zrotation
									JOINT newVegas:RightHandPinky2
									{
										OFFSET -2.538986 0.000000 0.000000
										CHANNELS 3 Xrotation Yrotation Zrotation
										JOINT newVegas:RightHandPinky3
										{
											OFFSET -2.593102 0.000000 0.000000
											CHANNELS 3 Xrotation Yrotation Zrotation
											End Site
											{
												OFFSET 0.150902 2.584198 0.152708
											}
										}
									}
								}
							}
							JOINT newVegas:Right_CapeC
							{
								OFFSET -15.715958 -8.608795 -6.935905
								CHANNELS 3 Xrotation Yrotation Zrotation
								JOINT newVegas:Right_CapeC1
								{
									OFFSET 0.000000 -8.688499 0.000000
									CHANNELS 3 Xrotation Yrotation Zrotation
									End Site
									{
										OFFSET 0.000000 8.688499 0.000000
									}
								}
							}
							JOINT newVegas:Right_Sleeve
							{
								OFFSET -0.267448 -0.649994 0.577675
								CHANNELS 3 Xrotation Yrotation Zrotation
								End Site
								{
									OFFSET 0.000000 15.991302 0.000000
								}
							}
						}
						JOINT newVegas:Right_CapeA
						{
							OFFSET -5.115540 -8.608795 -10.395824
							CHANNELS 3 Xrotation Yrotation Zrotation
							JOINT newVegas:Right_CapeA1
							{
								OFFSET 0.000000 -8.688499 0.000000
								CHANNELS 3 Xrotation Yrotation Zrotation
								End Site
								{
									OFFSET 0.000000 8.688499 0.000000
								}
							}
						}
						JOINT newVegas:Right_CapeB
						{
							OFFSET -26.118187 -8.608795 -7.079266
							CHANNELS 3 Xrotation Yrotation Zrotation
							JOINT newVegas:Right_CapeB1
							{
								OFFSET 0.000000 -8.688499 0.000000
								CHANNELS 3 Xrotation Yrotation Zrotation
								End Site
								{
									OFFSET 0.000000 8.688499 0.000000
								}
							}
						}
					}
				}
				JOINT newVegas:Left_Collar
				{
					OFFSET 18.625099 8.655502 8.828100
					CHANNELS 3 Xrotation Yrotation Zrotation
					JOINT newVegas:Left_Collar1
					{
						OFFSET 14.783401 10.540405 -1.259500
						CHANNELS 3 Xrotation Yrotation Zrotation
						End Site
						{
							OFFSET 0.000000 18.199875 0.000000
						}
					}
				}
				JOINT newVegas:Collar_Back
				{
					OFFSET 0.000000 15.630707 -20.132601
					CHANNELS 3 Xrotation Yrotation Zrotation
					End Site
					{
						OFFSET 0.000000 22.523010 0.000000
					}
				}
				JOINT newVegas:Left_Peck
				{
					OFFSET 17.239599 -5.132599 25.482599
					CHANNELS 3 Xrotation Yrotation Zrotation
					End Site
					{
						OFFSET 0.000000 22.523010 0.000000
					}
				}
				JOINT newVegas:Right_Peck
				{
					OFFSET -17.239599 -5.132202 25.482599
					CHANNELS 3 Xrotation Yrotation Zrotation
					End Site
					{
						OFFSET 0.000000 22.523010 0.000000
					}
				}
				JOINT newVegas:Right_Collar
				{
					OFFSET -18.625099 8.655792 8.828100
					CHANNELS 3 Xrotation Yrotation Zrotation
					JOINT newVegas:Right_Collar1
					{
						OFFSET -14.783401 10.539993 -1.259500
						CHANNELS 3 Xrotation Yrotation Zrotation
						End Site
						{
							OFFSET 0.000000 18.199631 0.000000
						}
					}
				}
			}
		}
		JOINT newVegas:Belly
		{
			OFFSET 0.000000 -6.540398 9.014299
			CHANNELS 3 Xrotation Yrotation Zrotation
			End Site
			{
				OFFSET 0.000000 11.566666 0.000000
			}
		}
	}
	JOINT newVegas:ElvisFacialAnim_Joint
	{
		OFFSET 1.000000 -95.330101 -8.825800
		CHANNELS 3 Xrotation Yrotation Zrotation
		End Site
		{
			OFFSET 0.000000 35.315800 0.000000
		}
	}
}
MOTION
Frames: 4
Frame Time: 0.033333
-3.017691 51.370552 -6.293763 7.425398 51.602636 -12.732105 -0.000001 -0.000004 -0.000000 -118.653582 -22.322322 24.904676 114.419752 7.642136 -2.235195 3.586630 1.643724 0.307657 -0.000000 -0.000000 0.000000 -0.000000 -0.000000 0.000000 -76.494512 43.768412 2.251480 123.323997 3.019560 6.323507 -2.334931 5.105078 11.619916 -0.000001 -0.000001 -0.000001 0.000001 -0.000002 0.000000 13.982128 2.202172 4.793721 2.882306 3.636955 -0.199835 9.096338 4.655194 -2.669806 -0.603084 0.726175 1.777834 -0.603061 0.726209 1.777830 0.000000 0.000001 -0.000000 -0.603080 0.726191 1.777835 -0.603118 0.726186 1.777834 -0.000000 -0.000000 0.000001 0.000000 0.000001 -0.000000 -1.735072 -1.832740 0.171776 -54.566460 -23.956105 -77.196219 -92.201393 15.549382 -82.398548 -24.219897 -4.358461 14.246857 0.699120 9.503417 -2.418104 5.975195 12.647531 1.348345 -0.000000 -0.000003 0.000000 9.479713 -1.289788 -20.785555 0.709484 2.796436 -28.467098 -0.000003 -0.000003 -0.000002 10.058164 -1.800616 -20.644721 1.774255 4.200495 -45.782092 0.000002 -0.000001 0.000001 1.254229 -0.073729 -17.945776 3.754108 5.463584 -68.965301 -0.000001 0.000001 0.000001 -7.938258 1.609070 -6.495670 2.210591 4.583673 -51.475164 0.000002 -0.000002 -0.000002 -0.000000 -0.000001 -0.000001 -0.000000 -0.000001 -0.000001 -0.000000 -0.000000 0.000000 0.000001 -0.000004 0.000005 0.000001 -0.000006 0.000005 0.000001 -0.000004 0.000005 -0.000001 -0.000006 0.000006 -5.930193 -8.867138 -1.911336 15.836659 53.498563 23.821950 33.815242 123.662774 -41.493386 -16.169819 21.958536 -21.397837 13.942492 -4.273670 -5.300351 7.113143 -20.767525 -2.619510 -0.000001 -0.000001 -0.000001 0.357767 -5.832685 5.175867 0.094330 -0.933626 11.539833 -0.000001 -0.000001 -0.000001 3.764104 -12.080492 1.143778 5.714261 -4.535850 103.133486 0.000000 0.000001 -0.000000 -12.155606 -12.623939 9.228372 6.566872 -4.248363 114.232312 -0.000001 0.000000 0.000005 -17.635747 -10.496822 3.325429 4.993640 -4.644958 94.147970 -0.000000 -0.000000 -0.000002 -0.000001 0.000000 0.000001 -0.000001 0.000000 0.000001 -0.000001 0.000000 0.000001 0.000001 -0.000001 -0.000003 0.000002 0.000000 -0.000003 0.000001 -0.000001 -0.000003 0.000002 -0.000000 -0.000001 -0.000000 -0.000000 -0.000000 -0.000000 -0.000000 -0.000000 -0.000000 -0.000000 -0.000000 -0.000000 -0.000000 -0.000000 -0.000000 -0.000000 -0.000000 -0.000000 -0.000000 -0.000000 -0.000000 -0.000000 -0.000000 0.000001 -0.000002 0.000001 -0.000001 -0.000004 -0.000000 
-2.033227 50.765671 -5.095629 1.620274 53.050407 -6.450550 0.000000 -0.000002 -0.000000 -115.116746 -21.232015 25.960591 116.867829 6.997522 -1.458416 1.724494 0.898707 -0.766603 0.000000 0.000000 0.000000 0.000000 -0.000000 -0.000000 -67.856761 41.307891 0.826840 126.682524 0.996813 2.314148 -9.936245 3.144573 11.660432 -0.000000 -0.000002 -0.000002 -0.000002 0.000002 -0.000000 15.493495 2.204618 4.083108 4.309024 3.666808 -0.874344 10.432412 4.333951 -3.155250 -0.553478 0.723173 1.736297 -0.553466 0.723170 1.736301 -0.000000 0.000001 -0.000001 -0.553468 0.723176 1.736289 -0.553517 0.723134 1.736303 0.000000 0.000000 0.000000 -0.000000 0.000001 -0.000000 -1.841997 -2.255572 0.165788 -55.185241 -26.193547 -76.096968 -92.361322 14.569985 -81.259956 -26.918819 -4.333419 12.993996 0.699121 9.503417 -2.418106 5.975199 12.647536 1.348348 0.000002 -0.000001 -0.000003 9.479713 -1.289784 -20.785555 0.709486 2.796434 -28.467091 -0.000001 0.000001 -0.000004 10.058162 -1.800614 -20.644723 1.774255 4.200487 -45.782089 0.000005 -0.000002 0.000000 1.254231 -0.073732 -17.945776 3.754110 5.463586 -68.965294 -0.000001 -0.000001 0.000002 -7.938258 1.609074 -6.495672 2.210589 4.583678 -51.475161 -0.000004 -0.000001 -0.000003 0.000001 0.000000 -0.000003 0.000001 0.000000 -0.000003 0.000000 0.000001 -0.000002 0.000002 0.000000 0.000002 0.000002 -0.000001 0.000001 0.000002 0.000000 0.000002 0.000000 -0.000001 0.000003 -6.042901 -8.902743 -1.948648 12.708014 52.175419 27.894358 34.893753 123.905820 -40.800026 -14.507008 21.782698 -22.001933 13.942494 -4.273668 -5.300355 7.113140 -20.767530 -2.619512 0.000001 0.000000 -0.000000 0.357766 -5.832686 5.175867 0.094332 -0.933626 11.539836 -0.000000 -0.000001 -0.000001 3.764104 -12.080492 1.143777 5.714261 -4.535850 103.133486 -0.000000 0.000001 -0.000001 -12.155609 -12.623934 9.228371 6.566873 -4.248364 114.232312 0.000001 0.000001 0.000002 -17.635747 -10.496822 3.325428 4.993640 -4.644957 94.147963 0.000000 0.000002 -0.000001 0.000001 0.000000 0.000000 0.000001 0.000000 0.000000 0.000001 0.000000 0.000002 -0.000001 -0.000001 -0.000002 -0.000001 0.000000 -0.000000 -0.000001 -0.000001 -0.000002 -0.000001 0.000000 0.000002 -0.000002 0.000001 -0.000001 -0.000002 0.000001 -0.000001 -0.000002 0.000001 -0.000001 -0.000002 0.000001 -0.000001 -0.000002 0.000001 -0.000001 -0.000002 0.000001 -0.000001 -0.000002 0.000001 -0.000001 -0.000000 -0.000000 0.000000 0.000000 -0.000002 -0.000000 
-0.700066 49.704720 -3.786286 -4.434099 54.028077 1.148373 0.000000 -0.000003 -0.000000 -111.241058 -19.774202 26.957780 119.981753 6.457293 -0.855941 -0.730366 0.233742 -2.490320 0.000000 -0.000000 0.000000 -0.000000 0.000000 -0.000000 -56.969819 40.609180 -2.400195 130.297839 -0.625903 -0.451578 -18.945328 1.408821 9.941033 0.000001 0.000002 -0.000000 -0.000001 0.000002 -0.000001 15.510373 1.134901 2.151521 6.563795 4.092521 -1.252005 12.666062 4.642243 -3.758201 -0.501480 0.726934 1.653636 -0.501480 0.726950 1.653636 -0.000000 0.000001 -0.000000 -0.501344 0.726913 1.653644 -0.501642 0.726957 1.653636 0.000001 -0.000000 0.000001 -0.000000 0.000001 -0.000000 -2.004827 -2.912081 0.153616 -57.210221 -28.274019 -75.787806 -92.815919 14.357688 -79.360610 -28.512710 -4.147653 12.282308 0.699121 9.503412 -2.418104 5.975197 12.647536 1.348343 -0.000000 -0.000003 -0.000001 9.479713 -1.289783 -20.785553 0.709483 2.796439 -28.467095 -0.000000 0.000001 0.000000 10.058162 -1.800612 -20.644720 1.774254 4.200492 -45.782092 0.000004 0.000000 -0.000001 1.254229 -0.073734 -17.945777 3.754108 5.463584 -68.965301 -0.000000 0.000001 -0.000000 -7.938262 1.609074 -6.495670 2.210589 4.583675 -51.475161 0.000001 -0.000003 -0.000002 0.000000 -0.000001 -0.000000 0.000000 -0.000001 -0.000000 0.000000 -0.000001 0.000000 -0.000003 0.000000 0.000001 -0.000003 -0.000001 0.000000 -0.000003 0.000000 0.000001 -0.000005 -0.000001 0.000002 -6.245248 -9.041471 -2.025887 8.092016 49.959005 32.674887 36.088025 124.435419 -39.902563 -13.548743 20.904287 -22.229887 13.942493 -4.273672 -5.300357 7.113143 -20.767525 -2.619510 0.000000 -0.000001 -0.000002 0.357767 -5.832687 5.175868 0.094329 -0.933624 11.539833 -0.000001 0.000000 -0.000002 3.764107 -12.080496 1.143779 5.714260 -4.535850 103.133493 -0.000000 0.000000 0.000001 -12.155601 -12.623935 9.228371 6.566876 -4.248365 114.232312 0.000001 0.000002 0.000002 -17.635743 -10.496825 3.325427 4.993637 -4.644958 94.147970 0.000001 -0.000002 -0.000000 0.000001 0.000000 0.000001 0.000001 0.000000 0.000001 0.000001 0.000000 0.000002 0.000000 0.000001 -0.000000 0.000000 0.000002 -0.000002 0.000000 0.000001 -0.000000 0.000001 0.000002 -0.000000 -0.000000 0.000001 -0.000001 -0.000000 0.000001 -0.000001 -0.000000 0.000001 -0.000001 -0.000000 0.000001 -0.000001 -0.000000 0.000001 -0.000001 -0.000000 0.000001 -0.000001 -0.000000 0.000001 -0.000001 -0.000000 -0.000002 0.000001 0.000000 -0.000003 -0.000000 
0.684170 48.103745 -2.309289 -9.122473 53.861649 7.916097 -0.000000 -0.000002 -0.000000 -107.709781 -19.911537 28.567218 123.741800 6.140139 -0.818971 -3.214632 -1.273652 -5.009431 -0.000000 0.000000 -0.000000 0.000000 0.000000 0.000000 -46.073021 43.445594 -6.439543 133.641489 -1.283368 -1.008382 -26.935300 0.739770 9.128783 -0.000001 -0.000002 0.000001 -0.000000 0.000001 0.000001 14.015170 -0.080681 -0.551840 8.957243 4.525512 -1.375376 15.457806 5.030514 -4.207676 -0.473570 0.743097 1.554163 -0.473558 0.743098 1.554179 0.000002 0.000002 -0.000002 -0.473508 0.743080 1.554171 -0.473562 0.743085 1.554175 -0.000000 -0.000001 0.000002 0.000002 0.000002 -0.000001 -2.214019 -3.747926 0.133707 -59.912466 -28.987620 -75.662759 -93.657460 16.538388 -77.835053 -27.023102 -4.311701 12.830977 0.699123 9.503417 -2.418101 5.975196 12.647539 1.348348 -0.000000 -0.000002 -0.000003 9.479710 -1.289784 -20.785555 0.709486 2.796431 -28.467091 -0.000003 0.000002 -0.000000 10.058162 -1.800612 -20.644725 1.774253 4.200499 -45.782092 0.000002 -0.000003 0.000000 1.254230 -0.073735 -17.945776 3.754111 5.463586 -68.965301 0.000002 -0.000001 0.000003 -7.938258 1.609075 -6.495670 2.210590 4.583673 -51.475157 -0.000001 -0.000005 0.000001 0.000000 -0.000000 -0.000000 0.000000 -0.000000 -0.000000 0.000000 -0.000000 0.000001 -0.000004 0.000003 -0.000003 -0.000004 0.000002 -0.000003 -0.000004 0.000003 -0.000003 -0.000005 0.000002 -0.000002 -6.489949 -8.659052 -2.045492 2.217365 47.194162 37.320714 37.189786 125.232242 -39.008095 -13.844805 18.778808 -21.696671 13.942497 -4.273672 -5.300356 7.113141 -20.767532 -2.619516 -0.000000 -0.000001 -0.000000 0.357766 -5.832686 5.175868 0.094329 -0.933626 11.539833 -0.000000 0.000001 0.000001 3.764106 -12.080493 1.143779 5.714261 -4.535849 103.133486 -0.000001 -0.000000 0.000001 -12.155601 -12.623935 9.228374 6.566872 -4.248364 114.232312 0.000001 -0.000001 -0.000003 -17.635743 -10.496827 3.325429 4.993634 -4.644954 94.147970 -0.000000 0.000001 0.000002 -0.000000 -0.000000 0.000002 -0.000000 0.000000 0.000000 -0.000000 0.000000 0.000002 -0.000002 0.000000 -0.000000 -0.000002 0.000001 -0.000000 -0.000002 0.000000 -0.000000 -0.000002 0.000001 0.000001 -0.000001 0.000001 -0.000000 -0.000001 0.000001 -0.000000 -0.000001 0.000001 -0.000000 -0.000001 0.000001 -0.000000 -0.000001 0.000001 -0.000000 -0.000001 0.000001 -0.000000 -0.000001 0.000001 -0.000000 -0.000000 0.000001 -0.000000 -0.000000 -0.000002 -0.000000 
